<?xml version="1.0" encoding="UTF-8" standalone="no"?>
<!DOCTYPE svg PUBLIC "-//W3C//DTD SVG 1.1//EN" "http://www.w3.org/Graphics/SVG/1.1/DTD/svg11.dtd">
<svg xmlns="http://www.w3.org/2000/svg" xmlns:xlink="http://www.w3.org/1999/xlink" version="1.1" width="841.89pt" height="118.399pt" viewBox="0 0 841.89 118.399">
<g enable-background="new">
<g id="Layer-1" data-name="Слой 2">
<clipPath id="cp0">
<path transform="matrix(1,0,0,-1,0,118.399)" d="M 0 118.399 L 841.89 118.399 L 841.89 0 L 0 0 Z "/>
</clipPath>
<g clip-path="url(#cp0)">
<path transform="matrix(1,0,0,-1,45.7275,83.7219)" d="M 0 0 C 2.665 -2.265 5.358 -4.438 8.064 -6.529 C 10.291 -5.169 12.535 -3.725 14.787 -2.2 C 11.462 .304 8.148 2.948 4.872 5.732 C -10.849 19.093 -23.724 33.812 -31.381 47.176 C -38.199 59.076 -40.058 68.781 -36.355 73.136 C -34.604 75.197 -31.474 76.222 -27.301 76.222 C -22.649 76.222 -16.702 74.947 -9.933 72.412 C -9.18 72.129 -8.405 71.793 -7.64 71.484 C -7.646 71.342 -7.682 71.208 -7.682 71.064 C -7.682 65.911 -3.505 61.734 1.647 61.734 C 6.8 61.734 10.977 65.911 10.977 71.064 C 10.977 76.216 6.8 80.393 1.647 80.393 C -.61 80.393 -2.653 79.559 -4.267 78.224 C -5.278 78.639 -6.301 79.083 -7.294 79.456 C -23.71 85.605 -36.067 85.091 -42.088 78.008 C -48.108 70.926 -46.623 58.648 -37.908 43.437 C -29.829 29.336 -16.366 13.91 0 0 " fill="#ffffff"/>
<path transform="matrix(1,0,0,-1,87.4131,34.677507)" d="M 0 0 C -2.665 2.265 -5.358 4.437 -8.063 6.528 C -10.287 5.17 -12.528 3.715 -14.778 2.192 C -11.457 -.31 -8.145 -2.951 -4.873 -5.732 C 10.849 -19.093 23.723 -33.812 31.381 -47.177 C 38.198 -59.076 40.057 -68.781 36.354 -73.136 C 32.651 -77.495 22.773 -77.222 9.932 -72.412 C 9.051 -72.082 8.154 -71.714 7.257 -71.346 C 7.258 -71.317 7.266 -71.291 7.266 -71.262 C 7.266 -66.109 3.089 -61.933 -2.063 -61.933 C -7.216 -61.933 -11.393 -66.109 -11.393 -71.262 C -11.393 -76.414 -7.216 -80.591 -2.063 -80.591 C .323 -80.591 2.477 -79.668 4.126 -78.195 C 5.189 -78.634 6.25 -79.065 7.293 -79.456 C 14.894 -82.303 21.623 -83.722 27.257 -83.722 C 33.792 -83.722 38.853 -81.813 42.086 -78.009 C 48.106 -70.926 46.623 -58.648 37.908 -43.438 C 29.829 -29.336 16.366 -13.911 0 0 " fill="#ffffff"/>
<path transform="matrix(1,0,0,-1,102.0396,70.1062)" d="M 0 0 C -1.552 1.911 -3.189 3.828 -4.906 5.746 C -9.403 1.12 -14.291 -3.457 -19.499 -7.884 C -35.22 -21.245 -51.821 -31.58 -66.245 -36.983 C -79.086 -41.792 -88.966 -42.065 -92.667 -37.708 C -96.144 -33.618 -94.658 -24.785 -88.828 -13.875 C -88.596 -13.892 -88.373 -13.945 -88.136 -13.945 C -82.983 -13.945 -78.807 -9.768 -78.807 -4.615 C -78.807 .537 -82.983 4.714 -88.136 4.714 C -93.289 4.714 -97.465 .537 -97.465 -4.615 C -97.465 -6.767 -96.707 -8.725 -95.483 -10.303 C -103.054 -24.451 -104.114 -35.858 -98.4 -42.58 C -95.167 -46.384 -90.106 -48.293 -83.57 -48.293 C -77.936 -48.293 -71.205 -46.874 -63.606 -44.027 C -48.388 -38.328 -30.994 -27.526 -14.626 -13.616 C -9.431 -9.2 -4.531 -4.631 0 0 " fill="#ffffff"/>
<path transform="matrix(1,0,0,-1,94.7065,4.266403)" d="M 0 0 C -15.218 -5.7 -32.612 -16.5 -48.979 -30.411 C -54.175 -34.828 -59.075 -39.397 -63.606 -44.028 C -62.055 -45.938 -60.415 -47.854 -58.699 -49.772 C -54.202 -45.146 -49.315 -40.57 -44.107 -36.144 C -28.386 -22.782 -11.785 -12.447 2.639 -7.044 C 9.409 -4.508 15.354 -3.234 20.006 -3.234 C 24.178 -3.234 27.311 -4.26 29.061 -6.32 C 32.435 -10.289 31.143 -18.725 25.735 -29.192 C 25.409 -29.158 25.093 -29.094 24.758 -29.094 C 19.605 -29.094 15.429 -33.271 15.429 -38.423 C 15.429 -43.575 19.605 -47.752 24.758 -47.752 C 29.91 -47.752 34.087 -43.575 34.087 -38.423 C 34.087 -36.374 33.407 -34.495 32.287 -32.956 C 39.489 -19.163 40.403 -8.048 34.793 -1.447 C 28.773 5.634 16.417 6.15 0 0 " fill="#ffffff"/>
<path transform="matrix(1,0,0,-1,309.2617,.31960298)" d="M 0 0 C -3.51 0 -6.542 -1.172 -9.096 -3.511 C -6.862 -5.32 -5.744 -7.926 -5.744 -11.329 C -5.744 -12.925 -5.959 -14.68 -6.383 -16.595 L -26.808 -100.847 L -49.466 -10.053 C -51.061 -3.351 -55.158 0 -61.752 0 C -64.944 0 -67.524 -.746 -69.491 -2.234 C -71.461 -3.725 -72.977 -6.33 -74.039 -10.053 L -97.815 -100.369 L -118.398 -13.882 C -119.464 -8.776 -121.006 -5.186 -123.027 -3.111 C -125.048 -1.038 -127.654 0 -130.845 0 C -135.739 0 -139.517 -2.075 -142.174 -6.223 C -139.09 -7.607 -136.856 -10.958 -135.473 -16.276 L -112.175 -105.155 C -111.007 -110.05 -109.383 -113.427 -107.309 -115.288 C -105.234 -117.146 -102.337 -118.08 -98.613 -118.08 C -94.89 -118.08 -91.91 -117.096 -89.676 -115.127 C -87.442 -113.162 -85.795 -109.838 -84.73 -105.155 L -62.87 -23.936 L -41.328 -105.155 C -39.413 -113.772 -34.921 -118.08 -27.844 -118.08 C -20.771 -118.08 -16.171 -113.772 -14.042 -105.155 L 9.574 -17.233 C 10.212 -13.83 10.532 -11.543 10.532 -10.372 C 10.532 -3.458 7.021 0 0 0 " fill="#ffffff"/>
<path transform="matrix(1,0,0,-1,399.0962,15.319099)" d="M 0 0 C 6.808 0 11.913 -1.277 15.319 -3.829 C 18.51 -2.234 20.106 .372 20.106 3.989 C 20.106 10.477 14.042 13.723 1.916 13.723 L -49.306 13.723 C -55.157 13.723 -59.573 11.649 -62.55 7.5 C -59.573 6.223 -58.082 3.67 -58.082 -.159 L -58.082 -78.348 C -58.082 -86.54 -55.983 -92.47 -51.779 -96.139 C -47.578 -99.81 -41.008 -101.644 -32.072 -101.644 L 1.755 -101.644 C 8.031 -101.644 12.659 -100.582 15.639 -98.454 C 18.615 -96.326 20.106 -93.374 20.106 -89.597 C 20.106 -85.823 18.51 -83.134 15.319 -81.54 C 11.594 -85.903 6.488 -88.081 0 -88.081 L -30.477 -88.081 C -34.306 -88.081 -37.073 -87.232 -38.774 -85.529 C -40.477 -83.829 -41.328 -81.008 -41.328 -77.072 L -41.328 -48.188 L -12.446 -48.188 C -5.532 -48.188 -.426 -48.935 2.873 -50.423 C 5.745 -48.615 7.182 -46.115 7.182 -42.924 C 7.182 -39.732 5.797 -37.554 3.032 -36.381 C .265 -35.211 -4.416 -34.626 -11.009 -34.626 L -41.328 -34.626 L -41.328 0 Z " fill="#ffffff"/>
<path transform="matrix(1,0,0,-1,510.791,97.6565)" d="M 0 0 C -3.191 -4.363 -7.926 -6.542 -14.201 -6.542 L -37.658 -6.542 C -41.487 -6.542 -44.255 -5.692 -45.955 -3.989 C -47.658 -2.288 -48.508 .532 -48.508 4.468 L -48.508 84.093 C -48.508 92.921 -52.179 97.337 -59.519 97.337 C -63.668 97.337 -67.072 95.475 -69.73 91.752 C -66.858 90.476 -65.423 87.975 -65.423 84.253 L -65.423 3.192 C -65.423 -5.002 -63.429 -10.798 -59.439 -14.2 C -55.45 -17.606 -48.986 -19.307 -40.051 -19.307 L -13.882 -19.307 C -7.715 -19.307 -3.139 -18.165 -.159 -15.876 C 2.817 -13.59 4.309 -10.665 4.309 -7.101 C 4.309 -3.537 2.873 -1.17 0 0 " fill="#ffffff"/>
<path transform="matrix(1,0,0,-1,601.0254,100.7683)" d="M 0 0 C -5.48 -3.778 -13.219 -5.663 -23.219 -5.663 C -39.069 -5.663 -46.993 -1.995 -46.993 5.347 L -46.993 36.622 L -23.379 36.622 C -13.272 36.622 -5.48 34.707 0 30.877 C 5.476 27.048 8.217 21.887 8.217 15.398 C 8.217 8.909 5.476 3.775 0 0 M -46.674 85.769 C -41.037 87.365 -34.044 88.162 -25.691 88.162 C -17.342 88.162 -10.828 86.327 -6.145 82.658 C -1.465 78.987 .877 74.145 .877 68.137 C .877 62.125 -1.331 57.311 -5.746 53.696 C -10.16 50.077 -16.411 48.27 -24.494 48.27 L -46.993 48.27 Z M -1.834 44.441 C 4.546 46.249 9.519 49.228 13.085 53.376 C 16.646 57.525 18.428 62.684 18.428 68.854 C 18.428 78.214 14.599 85.821 6.94 91.672 C -.72 97.521 -11.916 100.449 -26.648 100.449 C -41.384 100.449 -54.76 98.319 -66.78 94.066 C -64.76 91.513 -63.748 87.683 -63.748 82.577 L -63.907 5.984 C -63.907 -2.102 -60.691 -8.059 -54.254 -11.887 C -47.819 -15.716 -37.207 -17.631 -22.422 -17.631 C -7.636 -17.631 4.12 -14.654 12.845 -8.695 C 21.566 -2.74 25.93 5.187 25.93 15.08 C 25.93 22.951 23.296 29.334 18.031 34.229 C 12.765 39.121 6.144 42.525 -1.834 44.441 " fill="#ffffff"/>
<path transform="matrix(1,0,0,-1,712.6396,15.319099)" d="M 0 0 C 6.808 0 11.912 -1.277 15.318 -3.829 C 18.511 -2.234 20.106 .372 20.106 3.989 C 20.106 10.477 14.042 13.723 1.917 13.723 L -49.306 13.723 C -55.156 13.723 -59.572 11.649 -62.551 7.5 C -59.572 6.223 -58.081 3.67 -58.081 -.159 L -58.081 -78.348 C -58.081 -86.54 -55.984 -92.47 -51.779 -96.139 C -47.578 -99.81 -41.007 -101.644 -32.071 -101.644 L 1.757 -101.644 C 8.029 -101.644 12.66 -100.582 15.639 -98.454 C 18.615 -96.326 20.106 -93.374 20.106 -89.597 C 20.106 -85.823 18.511 -83.134 15.318 -81.54 C 11.594 -85.903 6.489 -88.081 0 -88.081 L -30.478 -88.081 C -34.307 -88.081 -37.073 -87.232 -38.774 -85.529 C -40.478 -83.829 -41.327 -81.008 -41.327 -77.072 L -41.327 -48.188 L -12.446 -48.188 C -5.531 -48.188 -.425 -48.935 2.874 -50.423 C 5.746 -48.615 7.182 -46.115 7.182 -42.924 C 7.182 -39.732 5.797 -37.554 3.032 -36.381 C .265 -35.211 -4.414 -34.626 -11.008 -34.626 L -41.327 -34.626 L -41.327 0 Z " fill="#ffffff"/>
<path transform="matrix(1,0,0,-1,830.7187,100.6882)" d="M 0 0 L -25.691 39.254 L 5.583 80.742 C 8.457 84.677 9.894 88.134 9.894 91.113 C 9.894 94.091 8.989 96.432 7.182 98.135 C 5.37 99.835 2.846 100.688 -.4 100.688 C -3.646 100.688 -6.967 99.783 -10.373 97.976 C -8.459 96.592 -7.499 94.863 -7.499 92.79 C -7.499 90.715 -8.513 88.294 -10.531 85.529 L -34.309 52.659 L -59.519 91.113 C -61.752 94.517 -63.906 96.91 -65.981 98.294 C -68.056 99.675 -70.529 100.369 -73.401 100.369 C -76.275 100.369 -78.802 99.463 -80.98 97.656 C -83.162 95.846 -84.679 93.452 -85.529 90.476 C -81.062 90.261 -77.179 87.655 -73.88 82.656 L -45.637 39.574 L -75.794 -1.436 C -78.348 -5.053 -81.435 -6.861 -85.05 -6.861 L -85.05 -7.818 C -85.05 -10.799 -84.173 -13.192 -82.417 -15 C -80.66 -16.807 -78.403 -17.711 -75.634 -17.711 C -70.848 -17.711 -66.275 -14.679 -61.912 -8.617 L -37.02 26.33 L -14.362 -8.457 C -12.022 -11.863 -9.841 -14.256 -7.817 -15.638 C -5.801 -17.019 -3.379 -17.711 -.559 -17.711 C 2.258 -17.711 4.706 -16.807 6.781 -15 C 8.855 -13.192 10.316 -10.85 11.171 -7.979 C 6.915 -7.66 3.192 -5.002 0 0 " fill="#ffffff"/>
</g>
</g>
</g>
</svg>
