<?xml version="1.0" encoding="UTF-8" standalone="no"?>
<!DOCTYPE svg PUBLIC "-//W3C//DTD SVG 1.1//EN" "http://www.w3.org/Graphics/SVG/1.1/DTD/svg11.dtd">
<svg xmlns="http://www.w3.org/2000/svg" xmlns:xlink="http://www.w3.org/1999/xlink" version="1.1" width="272.13pt" height="158.74pt" viewBox="0 0 272.13 158.74">
<g enable-background="new">
<g id="Layer-1" data-name="Слой 1">
<path transform="matrix(1,0,0,-1,0,158.74)" d="M 0 0 L 272.13 0 L 272.13 158.74 L 0 158.74 Z " fill="#ffffff"/>
<clipPath id="cp0">
<path transform="matrix(1,0,0,-1,0,158.74)" d="M 0 158.74 L 272.13 158.74 L 272.13 0 L 0 0 Z "/>
</clipPath>
<g clip-path="url(#cp0)">
<path transform="matrix(1,0,0,-1,41.9014,84.91991)" d="M 0 0 C .669 -.568 1.345 -1.114 2.024 -1.639 C 2.583 -1.298 3.146 -.935 3.711 -.552 C 2.877 .076 2.045 .739 1.223 1.438 C -2.722 4.791 -5.953 8.485 -7.875 11.839 C -9.586 14.825 -10.053 17.261 -9.124 18.354 C -8.684 18.871 -7.898 19.128 -6.851 19.128 C -5.684 19.128 -4.191 18.808 -2.493 18.172 C -2.304 18.101 -2.109 18.017 -1.917 17.939 C -1.919 17.904 -1.928 17.87 -1.928 17.834 C -1.928 16.541 -.879 15.493 .414 15.493 C 1.707 15.493 2.755 16.541 2.755 17.834 C 2.755 19.127 1.707 20.175 .414 20.175 C -.153 20.175 -.666 19.966 -1.071 19.631 C -1.324 19.735 -1.581 19.847 -1.83 19.94 C -5.95 21.483 -9.051 21.354 -10.562 19.577 C -12.073 17.799 -11.7 14.718 -9.513 10.9 C -7.486 7.362 -4.107 3.491 0 0 "/>
<path transform="matrix(1,0,0,-1,52.3628,72.61181)" d="M 0 0 C -.668 .568 -1.344 1.113 -2.023 1.638 C -2.582 1.297 -3.144 .932 -3.708 .55 C -2.875 -.078 -2.044 -.741 -1.223 -1.438 C 2.723 -4.792 5.954 -8.486 7.875 -11.839 C 9.586 -14.826 10.053 -17.261 9.124 -18.354 C 8.194 -19.448 5.715 -19.379 2.493 -18.172 C 2.271 -18.089 2.046 -17.998 1.821 -17.905 C 1.821 -17.898 1.824 -17.891 1.824 -17.884 C 1.824 -16.59 .775 -15.542 -.518 -15.542 C -1.811 -15.542 -2.859 -16.59 -2.859 -17.884 C -2.859 -19.177 -1.811 -20.225 -.518 -20.225 C .081 -20.225 .622 -19.994 1.036 -19.624 C 1.302 -19.734 1.568 -19.842 1.831 -19.94 C 3.738 -20.655 5.426 -21.01 6.84 -21.01 C 8.48 -21.01 9.75 -20.532 10.562 -19.577 C 12.073 -17.799 11.7 -14.718 9.513 -10.901 C 7.486 -7.362 4.107 -3.491 0 0 "/>
<path transform="matrix(1,0,0,-1,56.0332,81.50291)" d="M 0 0 C -.389 .479 -.8 .961 -1.231 1.441 C -2.359 .281 -3.586 -.868 -4.893 -1.979 C -8.838 -5.332 -13.004 -7.926 -16.625 -9.281 C -19.847 -10.488 -22.326 -10.557 -23.255 -9.463 C -24.128 -8.437 -23.755 -6.22 -22.292 -3.482 C -22.233 -3.486 -22.178 -3.5 -22.118 -3.5 C -20.825 -3.5 -19.777 -2.451 -19.777 -1.158 C -19.777 .135 -20.825 1.183 -22.118 1.183 C -23.411 1.183 -24.459 .135 -24.459 -1.158 C -24.459 -1.698 -24.269 -2.189 -23.962 -2.586 C -25.862 -6.137 -26.128 -8.999 -24.694 -10.686 C -23.882 -11.641 -22.613 -12.12 -20.972 -12.119 C -19.559 -12.119 -17.869 -11.764 -15.962 -11.049 C -12.143 -9.619 -7.778 -6.908 -3.67 -3.417 C -2.367 -2.309 -1.137 -1.162 0 0 "/>
<path transform="matrix(1,0,0,-1,54.1934,64.98)" d="M 0 0 C -3.819 -1.431 -8.185 -4.141 -12.292 -7.632 C -13.596 -8.74 -14.825 -9.887 -15.962 -11.049 C -15.573 -11.528 -15.162 -12.01 -14.731 -12.491 C -13.603 -11.33 -12.376 -10.181 -11.069 -9.07 C -7.124 -5.717 -2.958 -3.124 .662 -1.768 C 2.361 -1.131 3.853 -.812 5.021 -.812 C 6.067 -.812 6.854 -1.069 7.293 -1.586 C 8.14 -2.582 7.815 -4.699 6.458 -7.326 C 6.376 -7.317 6.297 -7.301 6.213 -7.301 C 4.92 -7.301 3.872 -8.35 3.872 -9.643 C 3.872 -10.936 4.92 -11.984 6.213 -11.984 C 7.506 -11.984 8.554 -10.936 8.554 -9.643 C 8.554 -9.128 8.384 -8.657 8.103 -8.271 C 9.91 -4.809 10.139 -2.02 8.731 -.363 C 7.221 1.414 4.12 1.543 0 0 "/>
<path transform="matrix(1,0,0,-1,108.0376,63.989709)" d="M 0 0 C -.881 0 -1.642 -.294 -2.283 -.881 C -1.722 -1.335 -1.442 -1.989 -1.442 -2.843 C -1.442 -3.244 -1.496 -3.684 -1.602 -4.165 L -6.728 -25.308 L -12.414 -2.523 C -12.814 -.841 -13.843 0 -15.498 0 C -16.298 0 -16.946 -.187 -17.439 -.561 C -17.934 -.935 -18.314 -1.588 -18.581 -2.523 L -24.547 -25.188 L -29.713 -3.484 C -29.98 -2.203 -30.368 -1.301 -30.875 -.781 C -31.382 -.26 -32.036 0 -32.837 0 C -34.065 0 -35.013 -.521 -35.68 -1.562 C -34.906 -1.909 -34.345 -2.75 -33.998 -4.084 L -28.151 -26.389 C -27.858 -27.618 -27.451 -28.465 -26.93 -28.932 C -26.41 -29.399 -25.683 -29.632 -24.748 -29.632 C -23.813 -29.632 -23.066 -29.386 -22.505 -28.892 C -21.944 -28.399 -21.531 -27.565 -21.264 -26.389 L -15.778 -6.007 L -10.372 -26.389 C -9.891 -28.551 -8.764 -29.632 -6.988 -29.632 C -5.213 -29.632 -4.059 -28.551 -3.524 -26.389 L 2.402 -4.325 C 2.563 -3.471 2.643 -2.897 2.643 -2.603 C 2.643 -.868 1.762 0 0 0 "/>
<path transform="matrix(1,0,0,-1,130.582,67.75391)" d="M 0 0 C 1.708 0 2.99 -.32 3.844 -.961 C 4.645 -.561 5.046 .093 5.046 1.001 C 5.046 2.629 3.524 3.444 .48 3.444 L -12.374 3.444 C -13.842 3.444 -14.95 2.923 -15.697 1.882 C -14.95 1.562 -14.576 .921 -14.576 -.04 L -14.576 -19.662 C -14.576 -21.718 -14.049 -23.206 -12.995 -24.127 C -11.94 -25.048 -10.292 -25.508 -8.049 -25.508 L .44 -25.508 C 2.015 -25.508 3.177 -25.242 3.924 -24.708 C 4.671 -24.174 5.046 -23.433 5.046 -22.484 C 5.046 -21.538 4.645 -20.863 3.844 -20.463 C 2.909 -21.558 1.628 -22.104 0 -22.104 L -7.648 -22.104 C -8.609 -22.104 -9.304 -21.892 -9.731 -21.464 C -10.158 -21.037 -10.372 -20.329 -10.372 -19.342 L -10.372 -12.093 L -3.124 -12.093 C -1.388 -12.093 -.107 -12.28 .721 -12.654 C 1.441 -12.2 1.802 -11.573 1.802 -10.772 C 1.802 -9.971 1.455 -9.424 .761 -9.13 C .066 -8.836 -1.108 -8.689 -2.763 -8.689 L -10.372 -8.689 L -10.372 0 Z "/>
<path transform="matrix(1,0,0,-1,158.6123,88.41701)" d="M 0 0 C -.801 -1.095 -1.989 -1.642 -3.563 -1.642 L -9.45 -1.642 C -10.411 -1.642 -11.105 -1.429 -11.532 -1.001 C -11.96 -.574 -12.173 .134 -12.173 1.121 L -12.173 21.104 C -12.173 23.319 -13.095 24.427 -14.937 24.427 C -15.978 24.427 -16.832 23.96 -17.499 23.026 C -16.778 22.706 -16.418 22.078 -16.418 21.144 L -16.418 .801 C -16.418 -1.255 -15.918 -2.71 -14.916 -3.563 C -13.915 -4.418 -12.293 -4.845 -10.051 -4.845 L -3.483 -4.845 C -1.936 -4.845 -.787 -4.559 -.04 -3.984 C .707 -3.41 1.081 -2.677 1.081 -1.782 C 1.081 -.888 .722 -.294 0 0 "/>
<path transform="matrix(1,0,0,-1,181.2578,89.198207)" d="M 0 0 C -1.376 -.947 -3.317 -1.421 -5.827 -1.421 C -9.805 -1.421 -11.794 -.5 -11.794 1.342 L -11.794 9.19 L -5.867 9.19 C -3.331 9.19 -1.376 8.71 0 7.749 C 1.374 6.788 2.062 5.493 2.062 3.864 C 2.062 2.236 1.374 .948 0 0 M -11.714 21.524 C -10.299 21.925 -8.544 22.125 -6.448 22.125 C -4.353 22.125 -2.718 21.665 -1.542 20.744 C -.368 19.823 .22 18.607 .22 17.1 C .22 15.591 -.335 14.383 -1.442 13.476 C -2.55 12.567 -4.119 12.114 -6.147 12.114 L -11.794 12.114 Z M -.461 11.153 C 1.141 11.607 2.389 12.354 3.283 13.396 C 4.177 14.437 4.624 15.731 4.624 17.28 C 4.624 19.629 3.663 21.538 1.741 23.006 C -.181 24.474 -2.991 25.208 -6.688 25.208 C -10.386 25.208 -13.743 24.674 -16.759 23.607 C -16.252 22.966 -15.998 22.005 -15.998 20.724 L -16.038 1.502 C -16.038 -.527 -15.231 -2.022 -13.615 -2.982 C -12.001 -3.943 -9.338 -4.424 -5.627 -4.424 C -1.917 -4.424 1.033 -3.678 3.223 -2.182 C 5.412 -.687 6.507 1.302 6.507 3.784 C 6.507 5.76 5.846 7.362 4.524 8.59 C 3.203 9.818 1.541 10.672 -.461 11.153 "/>
<path transform="matrix(1,0,0,-1,209.2676,67.75391)" d="M 0 0 C 1.709 0 2.989 -.32 3.845 -.961 C 4.646 -.561 5.046 .093 5.046 1.001 C 5.046 2.629 3.524 3.444 .481 3.444 L -12.373 3.444 C -13.842 3.444 -14.95 2.923 -15.697 1.882 C -14.95 1.562 -14.575 .921 -14.575 -.04 L -14.575 -19.662 C -14.575 -21.718 -14.05 -23.206 -12.994 -24.127 C -11.939 -25.048 -10.291 -25.508 -8.048 -25.508 L .441 -25.508 C 2.016 -25.508 3.178 -25.242 3.925 -24.708 C 4.672 -24.174 5.046 -23.433 5.046 -22.484 C 5.046 -21.538 4.646 -20.863 3.845 -20.463 C 2.91 -21.558 1.629 -22.104 0 -22.104 L -7.648 -22.104 C -8.609 -22.104 -9.304 -21.892 -9.73 -21.464 C -10.158 -21.037 -10.371 -20.329 -10.371 -19.342 L -10.371 -12.093 L -3.123 -12.093 C -1.388 -12.093 -.106 -12.28 .722 -12.654 C 1.442 -12.2 1.803 -11.573 1.803 -10.772 C 1.803 -9.971 1.455 -9.424 .761 -9.13 C .066 -8.836 -1.107 -8.689 -2.763 -8.689 L -10.371 -8.689 L -10.371 0 Z "/>
<path transform="matrix(1,0,0,-1,238.9004,89.177707)" d="M 0 0 L -6.447 9.851 L 1.401 20.263 C 2.123 21.25 2.483 22.118 2.483 22.865 C 2.483 23.613 2.256 24.2 1.803 24.627 C 1.348 25.054 .714 25.268 -.101 25.268 C -.915 25.268 -1.748 25.041 -2.604 24.587 C -2.123 24.24 -1.882 23.807 -1.882 23.286 C -1.882 22.766 -2.136 22.158 -2.643 21.464 L -8.609 13.215 L -14.937 22.865 C -15.497 23.72 -16.038 24.32 -16.559 24.667 C -17.079 25.014 -17.699 25.188 -18.42 25.188 C -19.142 25.188 -19.775 24.961 -20.322 24.507 C -20.87 24.053 -21.25 23.452 -21.464 22.706 C -20.343 22.651 -19.368 21.998 -18.54 20.743 L -11.453 9.931 L -19.021 -.36 C -19.661 -1.269 -20.437 -1.722 -21.344 -1.722 L -21.344 -1.962 C -21.344 -2.71 -21.124 -3.311 -20.683 -3.765 C -20.242 -4.218 -19.676 -4.444 -18.98 -4.444 C -17.779 -4.444 -16.632 -3.684 -15.537 -2.163 L -9.29 6.607 L -3.604 -2.122 C -3.017 -2.978 -2.47 -3.578 -1.962 -3.925 C -1.455 -4.271 -.848 -4.444 -.14 -4.444 C .566 -4.444 1.182 -4.218 1.702 -3.765 C 2.223 -3.311 2.589 -2.723 2.804 -2.002 C 1.735 -1.923 .802 -1.256 0 0 "/>
<path transform="matrix(1,0,0,-1,66.6318,133.1719)" d="M 0 0 L -1.854 -5.597 L -2.958 -5.597 L -4.342 -1.455 L -5.749 -5.597 L -6.86 -5.597 L -8.715 0 L -7.636 0 L -6.244 -4.253 L -4.797 0 L -3.838 0 L -2.423 -4.277 L -.991 0 Z "/>
<path transform="matrix(1,0,0,-1,75.6016,137.8965)" d="M 0 0 L 0 -.872 L -4.197 -.872 L -4.197 4.725 L -.111 4.725 L -.111 3.854 L -3.158 3.854 L -3.158 2.398 L -.455 2.398 L -.455 1.543 L -3.158 1.543 L -3.158 0 Z "/>
<path transform="matrix(1,0,0,-1,80.6836,133.1719)" d="M 0 0 L 1.04 0 L 1.04 -4.717 L 3.966 -4.717 L 3.966 -5.597 L 0 -5.597 Z "/>
<path transform="matrix(1,0,0,-1,89.3955,133.1719)" d="M 0 0 L 1.04 0 L 1.04 -4.717 L 3.966 -4.717 L 3.966 -5.597 L 0 -5.597 Z "/>
<path transform="matrix(1,0,0,-1,99.2285,138.1611)" d="M 0 0 C 0 -.176 -.04 -.319 -.185 -.687 L -.592 -1.814 L -1.24 -1.814 L -.92 -.591 C -1.144 -.495 -1.296 -.287 -1.296 0 C -1.296 .4 -1.016 .664 -.648 .664 C -.272 .664 0 .393 0 0 "/>
<path transform="matrix(1,0,0,-1,114.2744,137.14551)" d="M 0 0 C 0 .56 -.424 .808 -1.207 .808 L -2.887 .808 L -2.887 -.808 L -1.207 -.808 C -.424 -.808 0 -.56 0 0 M -2.887 3.158 L -2.887 1.615 L -1.415 1.615 C -.695 1.615 -.288 1.871 -.288 2.383 C -.288 2.902 -.695 3.158 -1.415 3.158 Z M 1.048 -.104 C 1.048 -1.063 .296 -1.623 -1.144 -1.623 L -3.926 -1.623 L -3.926 3.974 L -1.304 3.974 C .04 3.974 .76 3.406 .76 2.519 C .76 1.943 .472 1.52 .04 1.287 C .64 1.096 1.048 .624 1.048 -.104 "/>
<path transform="matrix(1,0,0,-1,124.5537,137.8965)" d="M 0 0 L 0 -.872 L -4.197 -.872 L -4.197 4.725 L -.111 4.725 L -.111 3.854 L -3.158 3.854 L -3.158 2.398 L -.455 2.398 L -.455 1.543 L -3.158 1.543 L -3.158 0 Z "/>
<path transform="matrix(1,0,0,-1,139.9619,137.8965)" d="M 0 0 L 0 -.872 L -4.198 -.872 L -4.198 4.725 L -.112 4.725 L -.112 3.854 L -3.158 3.854 L -3.158 2.398 L -.456 2.398 L -.456 1.543 L -3.158 1.543 L -3.158 0 Z "/>
<path transform="matrix(1,0,0,-1,148.5068,138.76851)" d="M 0 0 L -1.52 2.127 L -3.022 0 L -4.206 0 L -2.127 2.854 L -4.094 5.597 L -2.919 5.597 L -1.487 3.606 L -.072 5.597 L 1.055 5.597 L -.904 2.895 L 1.199 0 Z "/>
<path transform="matrix(1,0,0,-1,153.8447,135.96971)" d="M 0 0 C 0 1.671 1.279 2.878 2.998 2.878 C 3.909 2.878 4.693 2.551 5.213 1.942 L 4.541 1.312 C 4.133 1.751 3.63 1.967 3.046 1.967 C 1.887 1.967 1.047 1.151 1.047 0 C 1.047 -1.151 1.887 -1.967 3.046 -1.967 C 3.63 -1.967 4.133 -1.751 4.541 -1.304 L 5.213 -1.943 C 4.693 -2.551 3.909 -2.879 2.99 -2.879 C 1.279 -2.879 0 -1.671 0 0 "/>
<path transform="matrix(1,0,0,-1,168.1777,137.8965)" d="M 0 0 L 0 -.872 L -4.198 -.872 L -4.198 4.725 L -.112 4.725 L -.112 3.854 L -3.158 3.854 L -3.158 2.398 L -.456 2.398 L -.456 1.543 L -3.158 1.543 L -3.158 0 Z "/>
<path transform="matrix(1,0,0,-1,173.2598,133.1719)" d="M 0 0 L 1.039 0 L 1.039 -4.717 L 3.966 -4.717 L 3.966 -5.597 L 0 -5.597 Z "/>
<path transform="matrix(1,0,0,-1,181.9717,133.1719)" d="M 0 0 L 1.039 0 L 1.039 -4.717 L 3.966 -4.717 L 3.966 -5.597 L 0 -5.597 Z "/>
<path transform="matrix(1,0,0,-1,194.8809,137.8965)" d="M 0 0 L 0 -.872 L -4.197 -.872 L -4.197 4.725 L -.111 4.725 L -.111 3.854 L -3.158 3.854 L -3.158 2.398 L -.455 2.398 L -.455 1.543 L -3.158 1.543 L -3.158 0 Z "/>
<path transform="matrix(1,0,0,-1,204.9375,133.1719)" d="M 0 0 L 0 -5.597 L -.856 -5.597 L -3.942 -1.807 L -3.942 -5.597 L -4.974 -5.597 L -4.974 0 L -4.118 0 L -1.032 -3.789 L -1.032 0 Z "/>
<path transform="matrix(1,0,0,-1,211.499,134.05081)" d="M 0 0 L -1.854 0 L -1.854 .879 L 2.895 .879 L 2.895 0 L 1.039 0 L 1.039 -4.718 L 0 -4.718 Z "/>
<path transform="matrix(1,0,0,-1,0,158.74)" d="M 44.081 20.904 L 0 20.904 L 0 23.872 L 44.081 23.872 Z "/>
<path transform="matrix(1,0,0,-1,0,158.74)" d="M 272.13 20.904 L 228.05 20.904 L 228.05 23.872 L 272.13 23.872 Z "/>
</g>
</g>
</g>
</svg>
